<?xml version="1.0" encoding="UTF-8"?>
<svg id="_Слой_2" data-name="Слой 2" xmlns="http://www.w3.org/2000/svg" xmlns:xlink="http://www.w3.org/1999/xlink" viewBox="0 0 902.65 200.18">
  <defs>
    <style>
      .cls-1 {
        fill: url(#linear-gradient-2);
      }

      .cls-2 {
        fill: #a5a7ab;
      }

      .cls-3 {
        fill: url(#linear-gradient-5);
      }

      .cls-4 {
        fill: url(#linear-gradient-3);
      }

      .cls-5 {
        fill: url(#linear-gradient);
      }

      .cls-6 {
        fill: url(#linear-gradient-4);
      }
    </style>
    <linearGradient id="linear-gradient" x1="-12.77" y1="111.45" x2="601.28" y2="111.45" gradientUnits="userSpaceOnUse">
      <stop offset="0" stop-color="#ffd02e"/>
      <stop offset=".14" stop-color="#feb72e"/>
      <stop offset=".43" stop-color="#fe7a2e"/>
      <stop offset=".52" stop-color="#fe672e"/>
      <stop offset=".98" stop-color="#c90678"/>
      <stop offset="1" stop-color="#c7017c"/>
    </linearGradient>
    <linearGradient id="linear-gradient-2" x1="-12.77" x2="601.28" xlink:href="#linear-gradient"/>
    <linearGradient id="linear-gradient-3" x1="-12.79" y1="110.13" x2="601.29" y2="110.13" xlink:href="#linear-gradient"/>
    <linearGradient id="linear-gradient-4" x1="-12.77" y1="111.46" x2="601.28" y2="111.46" xlink:href="#linear-gradient"/>
    <linearGradient id="linear-gradient-5" x1="-12.79" y1="111.59" x2="601.34" y2="111.59" xlink:href="#linear-gradient"/>
  </defs>
  <g id="_Слой_1-2" data-name="Слой 1">
    <g>
      <path class="cls-2" d="M646.77,132.24c-9.01,0-16.18,7.17-16.18,15.97s7.17,15.77,16.18,15.77,15.77-6.96,15.77-15.77-6.96-15.97-15.77-15.97Z"/>
      <g>
        <path class="cls-2" d="M740.92,58.93c-14.14,0-26.02,5.53-33.59,14.74V16.93c0-6.55-4.5-11.05-10.65-11.05s-10.86,4.71-10.86,11.05V152.94c0,6.34,4.52,11.05,10.86,11.05,5.95,0,10.45-4.5,10.45-11.05v-3.7c7.58,9.21,19.66,14.74,33.99,14.74,28.27,0,49.16-22.11,49.16-52.42s-20.9-52.63-49.35-52.63Zm-3.49,85.4c-18.03,0-30.31-13.32-30.31-32.77s12.08-32.97,30.31-32.97,30.72,13.94,30.72,32.77-12.9,32.97-30.72,32.97Z"/>
        <path class="cls-2" d="M851.27,132.47l-29.93-67.2c-1.64-3.89-5.53-6.35-9.83-6.35-5.73,0-10.65,4.92-10.65,10.45,0,2.05,.61,3.48,1.23,5.12l37.27,82.53v.02s.11,.12,.11,.12l-13.21,27.65c-.82,1.64-1.02,3.28-1.02,4.92,0,5.53,4.71,10.45,10.44,10.45,4.3,0,8.19-2.66,9.83-6.35l56.1-119.54c.82-1.64,1.02-3.28,1.02-4.92,0-5.53-4.71-10.45-10.44-10.45-4.3,0-8.19,2.66-9.83,6.35l-31.1,67.2Z"/>
      </g>
      <g>
        <path class="cls-5" d="M50.17,58.92c-11.67,0-21.71,4.1-28.88,11.06,0-6.35-4.5-11.06-10.44-11.06-6.35,0-10.85,4.71-10.85,11.06v82.94c0,6.35,4.71,11.06,10.85,11.06s10.65-4.5,10.65-11.06v-51.2c0-13.52,9.62-23.35,22.94-23.35s21.91,9.42,21.91,23.35v51.2c0,6.35,4.51,11.06,10.86,11.06,5.94,0,10.65-4.5,10.65-11.06v-54.07c0-24.37-14.75-39.94-37.68-39.94Z"/>
        <path class="cls-1" d="M356.15,58.92c-14.13,0-26.42,5.94-34,15.77-6.14-10.24-16.79-15.77-30.51-15.77-11.26,0-20.89,3.89-27.85,10.45-.2-5.94-4.71-10.45-10.44-10.45-6.35,0-10.85,4.71-10.85,11.06v82.94c0,6.35,4.71,11.06,10.85,11.06s10.65-4.5,10.65-11.06v-50.99c0-13.93,9.01-23.35,22.12-23.35s21.1,9.22,21.1,23.35v50.99c0,6.35,4.5,11.06,10.85,11.06,5.94,0,10.65-4.5,10.65-11.06v-52.02c0-12.9,9.42-22.32,22.12-22.32s20.89,9.01,20.89,23.35v50.99c0,6.35,4.71,11.06,10.86,11.06s10.85-4.5,10.85-11.06v-54.07c0-24.58-14.33-39.94-37.27-39.94Z"/>
        <path class="cls-4" d="M520.65,110.94c-3.1-4.05-8.57-4.79-12.64-1.67-1.45,1.11-2.42,2.89-3.14,5-2.25,8.18-7.14,15.26-13.98,20.48-14.14,10.84-29.96,10.03-42.08-1.05l51.08-39.09c6.01-4.6,7.02-11.05,2.54-16.91l-.62-.81c-16.44-21.47-44.17-25-65.47-8.71-23.25,17.8-27.21,49.7-9.15,73.3,18.29,23.91,50.07,27.69,74.79,8.78,9.93-7.6,16.62-17.36,19.92-28.91,1.34-4.65,.99-7.47-1.26-10.41Zm-73.71-27.92c12.04-9.21,26.26-7.45,35.43,3.84l-43.42,33.24c-6.36-13.71-3.55-28.25,7.99-37.08Z"/>
        <path class="cls-6" d="M606.22,143.1h-47.51l51.81-64.72c2.05-2.46,3.48-4.71,3.48-7.99,0-5.12-4.1-9.22-9.42-9.22h-62.46c-5.33,0-9.42,4.1-9.42,9.42s4.1,9.22,9.42,9.22h42.6l-51.41,64.1c-3.07,3.69-4.1,5.74-4.1,8.6,0,5.12,4.3,9.22,9.42,9.22h67.58c5.32,0,9.42-4.1,9.42-9.22,0-5.53-4.1-9.42-9.42-9.42Z"/>
        <path class="cls-3" d="M207.03,58.62c-5.86,0-10.57,4.5-11.09,10.2-8.82-6.21-19.62-9.91-31.47-9.91-29.71,0-53.04,22.94-53.04,52.47s23.33,52.42,53.04,52.61c11.85,0,22.65-3.7,31.43-9.95,.37,5.88,5.16,10.53,11.13,10.53s11.15-5.04,11.15-11.19V69.81c0-6.15-4.98-11.19-11.15-11.19Zm-23.25,58.74l4.48,26.12-23.46-12.35-23.46,12.35,4.48-26.12-18.98-18.5,26.22-3.8,11.73-23.77,11.73,23.77,26.2,3.8-18.95,18.5Z"/>
      </g>
      <g>
        <path class="cls-2" d="M399.28,10.57c-1.26,0-2.19,.97-2.19,2.29v.31c-1.86-1.36-4.13-2.19-6.65-2.19-6.17,0-11.03,4.77-11.03,10.9s4.85,10.88,11.03,10.92c2.52,0,4.81-.83,6.65-2.19,.06,1.26,.95,2.19,2.25,2.19s2.19-.97,2.19-2.29V12.86c0-1.32-.93-2.29-2.25-2.29Zm-8.84,18.11c-3.72,0-6.46-2.89-6.46-6.75s2.75-6.81,6.5-6.85c3.65,.04,6.46,2.93,6.46,6.85s-2.81,6.75-6.5,6.75Z"/>
        <g>
          <path class="cls-2" d="M14.33,11.71c-2.81,0-5.31,1.24-7.02,3.32,.29-5.16,3.04-7.97,9.44-9.81l4.03-1.14c1.18-.33,1.8-1.05,1.8-2.09,0-1.09-.85-2-1.94-2-.29,0-.62,.1-1.38,.29l-3.78,1.09C6.21,4.03,2.66,8.67,2.66,18.03v2.5c0,7.25,4.4,12.04,10.9,12.04,6.15,0,10.94-4.54,10.94-10.47s-4.54-10.39-10.18-10.39Zm-.76,16.79c-3.51,0-6.36-2.85-6.36-6.36s2.85-6.3,6.36-6.3,6.36,2.75,6.36,6.3-2.81,6.36-6.36,6.36Z"/>
          <path class="cls-2" d="M46.35,10.82c-2.97,0-5.49,1.14-7,3.04v-.87c0-1.22-.95-2.23-2.19-2.23-1.32,0-2.23,1.01-2.23,2.23v25.02c0,1.34,.95,2.27,2.23,2.27s2.23-.93,2.23-2.27v-8.42c1.57,1.88,4.03,3.04,6.96,3.04,5.93,0,10.24-4.65,10.24-10.96s-4.32-10.84-10.24-10.84Zm-.7,17.72c-3.8,0-6.3-2.75-6.3-6.88s2.56-6.77,6.3-6.77,6.36,2.89,6.36,6.83-2.66,6.81-6.36,6.81Z"/>
          <path class="cls-2" d="M76.31,10.82c-6.07,0-10.76,4.73-10.76,10.9s4.75,10.9,11.23,10.9c2.6,0,4.93-.76,6.92-2.29,.81-.56,1.09-1.07,1.09-1.84,0-1.05-.81-1.86-1.84-1.86-.39,0-.76,.14-1.16,.39-1.4,1.07-3.12,1.65-4.87,1.65-3.7,0-6.21-2.13-6.83-5.49h13.38c1.57,0,2.56-.95,2.56-2.48v-.23c0-5.6-4.13-9.66-9.73-9.66Zm-6.11,8.86c.66-3.04,2.99-5.08,5.97-5.08,3.18,0,5.31,2.09,5.37,5.08h-11.34Z"/>
          <path class="cls-2" d="M112.49,10.82c-1.28,0-2.23,.95-2.23,2.27v6.15h-9.29v-6.15c0-1.32-.99-2.27-2.23-2.27-1.32,0-2.27,.95-2.27,2.27V30.33c0,1.28,.95,2.29,2.27,2.29s2.23-1.01,2.23-2.29v-7.21h9.29v7.21c0,1.28,.99,2.29,2.23,2.29s2.23-1.01,2.23-2.29V13.09c0-1.32-.95-2.27-2.23-2.27Z"/>
          <path class="cls-2" d="M146.89,28.31h-1.32V13.57c0-1.28-.99-2.27-2.27-2.27h-9.87c-1.28,0-2.27,.89-2.27,2.17v.04c0,7.54-1.03,11.91-3.74,14.8h-.39c-1.28,0-2.31,.95-2.31,2.27v5.74c0,1.32,.99,2.31,2.27,2.31s2.27-.95,2.27-2.31v-4.17h15.4v4.17c0,1.32,.99,2.31,2.27,2.31s2.23-.95,2.23-2.31v-5.74c0-1.32-.99-2.27-2.27-2.27Zm-5.78,0h-8.9c2.35-2.56,3.37-6.65,3.41-13.17h5.49v13.17Z"/>
          <path class="cls-2" d="M175.71,10.82c-.81,0-1.38,.33-2.04,1.18l-9.95,12.99V13.09c0-1.32-.99-2.27-2.23-2.27-1.32,0-2.27,.95-2.27,2.27V30.33c0,1.28,.95,2.29,2.23,2.29,.7,0,1.36-.35,2.04-1.16l9.99-12.7v11.56c0,1.28,.95,2.29,2.23,2.29s2.23-1.01,2.23-2.29V13.09c0-1.32-.95-2.27-2.23-2.27Z"/>
          <path class="cls-2" d="M206,10.82c-1.28,0-2.23,.95-2.23,2.27v6.15h-9.29v-6.15c0-1.32-.99-2.27-2.23-2.27-1.32,0-2.27,.95-2.27,2.27V30.33c0,1.28,.95,2.29,2.27,2.29s2.23-1.01,2.23-2.29v-7.21h9.29v7.21c0,1.28,.99,2.29,2.23,2.29s2.23-1.01,2.23-2.29V13.09c0-1.32-.95-2.27-2.23-2.27Z"/>
          <path class="cls-2" d="M233.52,11.29h-10.94c-1.32,0-2.31,.99-2.31,2.27V30.33c0,1.28,.93,2.29,2.27,2.29s2.23-1.01,2.23-2.29V15.13h8.75c1.2,0,2-.81,2-1.9s-.81-1.94-2-1.94Z"/>
          <path class="cls-2" d="M253.43,10.82c-6.15,0-10.98,4.73-10.98,10.84s4.83,10.9,10.98,10.96c6.21,0,11.15-4.85,11.15-10.96s-4.93-10.84-11.15-10.84Zm0,17.67c-3.7,0-6.44-2.89-6.44-6.77s2.75-6.79,6.5-6.83c3.63,.04,6.48,2.93,6.48,6.83s-2.85,6.77-6.55,6.77Z"/>
          <path class="cls-2" d="M289.79,21c1.24-.99,1.86-2.46,1.86-4.13,0-3.41-2.77-5.57-7.02-5.57h-7.31c-1.32,0-2.27,.99-2.27,2.27V29.86c0,1.34,.95,2.29,2.27,2.29h8.49c4.27,0,7.31-2.56,7.31-6.21,0-2.23-1.14-3.98-3.32-4.93Zm-10.43-5.97h5.22c1.94,0,2.89,.76,2.89,2.23s-1.05,2.31-2.89,2.31h-5.22v-4.54Zm6.07,13.32h-6.07v-5.31h6.07c2.17,0,3.51,.99,3.51,2.6s-1.34,2.7-3.51,2.7Z"/>
          <path class="cls-2" d="M313.06,10.82c-6.15,0-11.05,4.73-11.05,10.84s4.89,10.9,11.05,10.96c6.21,0,11.09-4.85,11.09-10.96s-4.87-10.84-11.09-10.84Zm0,17.67c-3.7,0-6.44-2.89-6.44-6.77s2.75-6.79,6.48-6.83c3.65,.04,6.46,2.93,6.46,6.83s-2.81,6.77-6.5,6.77Z"/>
          <path class="cls-2" d="M343.82,10.82c-6.07,0-10.76,4.73-10.76,10.9s4.73,10.9,11.23,10.9c2.56,0,4.93-.76,6.92-2.29,.81-.56,1.09-1.07,1.09-1.84,0-1.05-.81-1.86-1.86-1.86-.37,0-.74,.14-1.14,.39-1.42,1.07-3.12,1.65-4.93,1.65-3.7,0-6.19-2.13-6.77-5.49h13.38c1.55,0,2.5-.95,2.5-2.48v-.23c0-5.6-4.13-9.66-9.66-9.66Zm-6.11,8.86c.66-3.04,2.93-5.08,5.97-5.08s5.27,2.09,5.35,5.08h-11.31Z"/>
          <path class="cls-2" d="M425.3,11.29h-11.01c-1.32,0-2.27,.99-2.27,2.27V30.33c0,1.28,.91,2.29,2.23,2.29s2.23-1.01,2.23-2.29V15.13h8.82c1.14,0,1.98-.81,1.98-1.9s-.85-1.94-1.98-1.94Z"/>
          <path class="cls-2" d="M444.91,10.82c-6.07,0-10.76,4.73-10.76,10.9s4.79,10.9,11.23,10.9c2.6,0,4.94-.76,6.98-2.29,.81-.56,1.07-1.07,1.07-1.84,0-1.05-.81-1.86-1.88-1.86-.39,0-.76,.14-1.16,.39-1.36,1.07-3.08,1.65-4.87,1.65-3.7,0-6.21-2.13-6.83-5.49h13.38c1.57,0,2.56-.95,2.56-2.48v-.23c0-5.6-4.13-9.66-9.73-9.66Zm-6.11,8.86c.7-3.04,2.99-5.08,6.03-5.08s5.24,2.09,5.35,5.08h-11.38Z"/>
          <path class="cls-2" d="M481.09,10.82c-1.28,0-2.23,.95-2.23,2.27v6.15h-9.29v-6.15c0-1.32-.99-2.27-2.23-2.27s-2.23,.95-2.23,2.27V30.33c0,1.28,.95,2.29,2.23,2.29s2.23-1.01,2.23-2.29v-7.21h9.29v7.21c0,1.28,.99,2.29,2.23,2.29s2.27-1.01,2.27-2.29V13.09c0-1.32-.99-2.27-2.27-2.27Z"/>
          <path class="cls-2" d="M509.33,11.29h-15.07c-1.09,0-1.94,.81-1.94,1.88s.85,1.96,1.94,1.96h5.35v15.2c0,1.28,.95,2.29,2.19,2.29s2.23-1.01,2.23-2.29V15.13h5.31c1.14,0,1.94-.87,1.94-1.96s-.81-1.88-1.94-1.88Z"/>
          <path class="cls-2" d="M536.59,25.17c-.58,0-1.05,.14-1.57,.72-1.28,1.51-2.93,2.6-5.22,2.6-3.78,0-6.52-2.85-6.52-6.83s2.79-6.73,6.52-6.73c2.29,0,3.98,1.09,5.22,2.62,.47,.56,.99,.74,1.57,.74,1.14,0,2.02-.89,2.02-2.02,0-.39-.08-.72-.41-1.2-1.61-2.5-4.79-4.25-8.44-4.25-6.21,0-11.05,4.77-11.05,10.84s4.83,10.96,11.05,10.96c3.74,0,6.73-1.71,8.49-4.32,.29-.43,.37-.76,.37-1.14,0-1.09-.89-2-2.02-2Z"/>
          <path class="cls-2" d="M562.79,11.29h-15.03c-1.14,0-1.98,.81-1.98,1.88s.85,1.96,1.98,1.96h5.33v15.2c0,1.28,.99,2.29,2.21,2.29s2.19-1.01,2.19-2.29V15.13h5.31c1.18,0,2-.87,2-1.96s-.83-1.88-2-1.88Z"/>
          <path class="cls-2" d="M588.58,21c1.24-.99,1.9-2.46,1.9-4.13,0-3.41-2.77-5.57-7.02-5.57h-7.35c-1.28,0-2.27,.99-2.27,2.27V29.86c0,1.34,.99,2.29,2.27,2.29h8.49c4.32,0,7.31-2.56,7.31-6.21,0-2.23-1.16-3.98-3.32-4.93Zm-10.39-5.97h5.22c1.88,0,2.83,.76,2.83,2.23s-.99,2.31-2.83,2.31h-5.22v-4.54Zm6.07,13.32h-6.07v-5.31h6.07c2.19,0,3.45,.99,3.45,2.6s-1.26,2.7-3.45,2.7Z"/>
          <path class="cls-2" d="M611.85,10.82c-6.17,0-11.01,4.73-11.01,10.84s4.83,10.9,11.01,10.96c6.21,0,11.13-4.85,11.13-10.96s-4.91-10.84-11.13-10.84Zm0,17.67c-3.7,0-6.44-2.89-6.44-6.77s2.75-6.79,6.48-6.83c3.65,.04,6.5,2.93,6.5,6.83s-2.85,6.77-6.55,6.77Z"/>
        </g>
      </g>
    </g>
  </g>
</svg>