<?xml version="1.0" encoding="UTF-8"?> <svg xmlns="http://www.w3.org/2000/svg" width="90" height="84" viewBox="0 0 90 84" fill="none"> <path fill-rule="evenodd" clip-rule="evenodd" d="M1.35731 0.469301C0.448594 1.0277 0 1.92588 0 3.18696C0 4.81649 1.03106 5.46764 7.67475 8.03434L13.7123 10.3668L14.1913 12.9082C14.8306 16.2993 15.3082 18.8509 16.1786 23.5262C16.578 25.6707 17.1523 28.7412 17.4547 30.3496C18.047 33.4984 19.8464 43.2499 20.2556 45.5281C20.3932 46.294 20.707 47.9859 20.9531 49.2879C21.1992 50.5899 21.5137 52.2819 21.6523 53.0478C22.1228 55.6496 22.2635 56.1108 22.7753 56.7341C23.3528 57.4367 24.4533 57.9216 25.4714 57.9216C25.848 57.9216 26.1562 57.9781 26.1562 58.0472C26.1562 58.1166 25.4602 60.1112 24.6094 62.4799C22.9961 66.9714 22.8639 67.6169 23.3663 68.5466C23.733 69.2247 25.2574 69.8973 26.4285 69.8973C26.8976 69.8973 27.2812 69.9625 27.2812 70.0421C27.2812 70.1218 26.9733 70.6699 26.597 71.2603C24.6572 74.303 25.2571 78.6262 28.0072 81.4244C30.4982 83.9588 34.5153 84.7057 37.7117 83.2285C40.4553 81.9608 42.0564 79.9327 42.7483 76.8491C43.0408 75.5449 43.0239 75.0349 42.6392 73.5477C42.3889 72.5804 41.9318 71.438 41.6233 71.0091C41.3148 70.5799 41.0625 70.1544 41.0625 70.0633C41.0625 69.972 45.1164 69.8973 50.0715 69.8973H59.0805L58.3718 71.1548C56.4722 74.5236 57.121 78.8855 59.9217 81.5773C63.335 84.8572 68.7443 84.7999 72.1299 81.4475C73.6931 79.8993 74.5807 77.7136 74.5807 75.4131C74.5807 73.6254 74.3729 72.967 72.9042 70.1062C72.8452 69.9912 73.2949 69.8973 73.9032 69.8973C75.5401 69.8973 76.7436 69.3849 77.2116 68.4884C77.794 67.3732 77.7279 66.7048 76.9463 65.805L76.2677 65.0235L52.6843 64.8842L29.1009 64.745L30.3303 61.3397L31.5599 57.9344L53.9125 57.8584L76.2652 57.7823L77.0625 56.8984C77.6438 56.2542 78.2924 54.6687 79.4551 51.0498C81.9821 43.1842 83.259 39.2406 83.8125 37.5907C84.3263 36.0595 85.0691 33.7657 88.2866 23.7774C89.2291 20.852 90 18.0511 90 17.5528C90 16.9017 89.7429 16.3937 89.0859 15.745L88.1719 14.8432L83.8125 14.6516C81.4148 14.5461 75.15 14.279 69.8906 14.0579C58.2438 13.568 48.7246 13.1533 41.0625 12.8018C37.8914 12.6564 34.1165 12.5347 32.6737 12.5314C30.1458 12.5255 30.0206 12.5548 29.2283 13.3393C27.6289 14.9232 28.5412 17.8636 30.7434 18.2226C31.237 18.3031 34.868 18.4964 38.8125 18.6521C42.757 18.808 48.832 19.0595 52.3125 19.211C55.793 19.3625 63.3234 19.672 69.0469 19.8981C79.8145 20.3239 82.9688 20.5303 82.9688 20.8088C82.9688 20.9617 78.7236 34.1311 78.1878 35.6412C78.0517 36.0241 77.0985 38.9693 76.0694 42.1861C75.0406 45.4028 73.9055 48.912 73.5472 49.9842L72.8958 51.9337L50.2577 52.005L27.6193 52.0763L27.3178 50.7518C27.0411 49.5355 26.8813 48.7022 26.1557 44.6926C26.0173 43.9267 25.5893 41.6082 25.2048 39.5403C21.6906 20.6367 20.7442 15.537 20.527 14.3355C19.2608 7.32694 19.0957 6.70086 18.3409 6.05027C17.5463 5.36542 3.65906 -0.0116782 2.71434 1.90559e-05C2.38163 0.00391813 1.77103 0.215304 1.35731 0.469301ZM36.1665 72.2557C38.5245 73.7858 38.423 77.283 35.9826 78.5792C32.4006 80.4814 28.7665 76.2506 31.2725 73.0957C32.4579 71.6035 34.5957 71.2367 36.1665 72.2557ZM67.7154 72.1939C69.482 73.0525 70.193 75.7897 69.084 77.4626C68.0732 78.9872 65.8544 79.4885 64.1424 78.5792C62.26 77.5793 61.6328 75.2115 62.7947 73.4895C63.9866 71.7224 65.7762 71.2514 67.7154 72.1939Z" fill="#FBFBFB"></path> </svg> 