<?xml version="1.0" encoding="UTF-8"?> <svg xmlns="http://www.w3.org/2000/svg" width="90" height="90" viewBox="0 0 90 90" fill="none"> <path fill-rule="evenodd" clip-rule="evenodd" d="M32.8552 0.30764C31.6175 1.02873 31.5197 1.77908 31.5197 10.5503C31.5197 19.3913 31.6178 20.1155 32.91 20.8071C33.88 21.3265 35.3198 21.1468 36.1177 20.4071L36.8616 19.7173V10.5503V1.38337L36.1177 0.693499C35.3226 -0.0436256 33.7729 -0.226993 32.8552 0.30764ZM10.5354 9.6138C9.79735 9.97125 9.30842 10.9891 9.30842 12.168C9.30842 12.9504 10.0608 13.811 15.6229 19.3902C21.7748 25.5611 21.9669 25.7245 23.0735 25.7245C24.6561 25.7245 25.7434 24.637 25.7434 23.0539C25.7434 21.9469 25.58 21.7548 19.4109 15.6011C13.5488 9.75357 13.0067 9.28616 12.1073 9.30387C11.5731 9.31428 10.8657 9.45377 10.5354 9.6138ZM55.1044 9.81376C54.2778 10.4659 44.3598 20.3731 43.4356 21.4699C41.648 23.5916 43.913 26.6034 46.467 25.5006C46.9911 25.2742 50.0408 22.4388 53.3795 19.0735C59.0392 13.3689 59.3541 12.9957 59.3541 11.9903C59.3541 9.81516 56.7762 8.49475 55.1044 9.81376ZM1.37281 31.941C-0.143457 32.7642 -0.466504 34.8217 0.71969 36.1019L1.40936 36.8461H10.5736H19.7379L20.4276 36.1019C21.636 34.7975 21.2854 32.7386 19.7168 31.9272C18.5179 31.3071 2.51852 31.3189 1.37281 31.941ZM33.9095 32.3308C33.1898 32.6255 32.4835 33.4355 32.2347 34.2514C32.0961 34.7067 34.2424 41.5194 39.6777 57.8753C47.9895 82.8872 47.7902 82.4066 49.8485 82.4066C50.616 82.4066 51.3026 81.8449 54.9076 78.2676L59.0785 74.1289L67.0296 82.0643L74.981 90H76.2217H77.4624L83.7311 83.7292L90 77.4588V76.2177V74.9766L82.0666 67.0229L74.1336 59.0695L78.271 54.8973C81.8473 51.2913 82.4088 50.6045 82.4088 49.8367C82.4088 47.7781 82.8837 47.9752 57.9483 39.684C45.3455 35.4936 34.9076 32.0732 34.753 32.0827C34.5983 32.0926 34.2188 32.2042 33.9095 32.3308ZM57.2069 45.1766L74.6003 50.976L71.3656 54.2465C68.0103 57.6388 67.5076 58.3087 67.5076 59.3856C67.5076 59.8488 69.7231 62.2469 75.5194 68.0573L83.5309 76.0889L79.8042 79.8094L76.0772 83.5296L68.2076 75.6532C63.8793 71.321 60.1076 67.7032 59.8258 67.6135C58.7192 67.2608 57.7096 67.929 54.3976 71.204L50.9827 74.5811L45.1872 57.19C42 47.6251 39.392 39.704 39.392 39.5881C39.392 39.472 39.4868 39.3772 39.6029 39.3772C39.7187 39.3772 47.6406 41.9871 57.2069 45.1766ZM21.49 43.422C20.3935 44.3464 10.4893 54.2673 9.83727 55.0942C8.51866 56.7664 9.83868 59.3451 12.0131 59.3451C13.0183 59.3451 13.3914 59.0301 19.0943 53.3688C22.4586 50.0291 25.2932 46.9785 25.5196 46.4543C26.622 43.8995 23.6111 41.6338 21.49 43.422Z" fill="#FBFBFB"></path> </svg> 