<?xml version="1.0" encoding="UTF-8"?> <svg xmlns="http://www.w3.org/2000/svg" width="85" height="92" viewBox="0 0 85 92" fill="none"> <path fill-rule="evenodd" clip-rule="evenodd" d="M54.1225 0.339637C48.3173 1.55643 43.3741 4.20473 39.2145 8.32667C36.788 10.7315 34.0099 14.6723 34.0099 15.71C34.0099 16.49 35.0829 18.1963 42.2249 28.7747L48.0321 37.3759L48.1737 62.1503L48.3153 86.9247L48.966 88.1498C49.368 88.9064 50.1198 89.6954 50.9334 90.2143L52.2506 91.0538H59.3841C67.1509 91.0538 67.7574 90.9541 69.1919 89.4397C70.906 87.6303 70.8358 88.7956 70.8358 62.1384V37.7609L74.043 33.0122C85.237 16.4381 84.9996 16.8106 84.9996 15.8157C84.9996 13.5549 80.1748 7.84798 75.76 4.88702C72.8595 2.94123 69.9486 1.59544 66.8699 0.775893C63.8431 -0.0294168 57.0017 -0.263776 54.1225 0.339637ZM14.4638 2.88713C8.62491 5.25152 7.39153 6.0759 6.35984 8.30332C5.69612 9.73568 5.68762 9.86952 5.68507 19.0227L5.68224 28.2914L4.71853 28.6417C2.91576 29.2972 3.00414 28.5263 2.84948 44.8945C2.70784 59.8688 2.70784 59.8722 2.10956 59.9579C1.78039 60.0052 1.17106 60.4007 0.755498 60.8367L0 61.6295L0.0790339 74.5831L0.158351 87.5367L0.841047 88.5379C1.21639 89.0883 1.97189 89.8478 2.51946 90.2251L3.51546 90.9114L15.2941 90.9914L27.0727 91.0714L28.3758 90.2405C29.2794 89.6647 29.8871 88.985 30.3573 88.0247L31.0355 86.6399L31.112 74.5375C31.1825 63.4309 31.1474 62.3531 30.687 61.4384C30.3474 60.7629 29.8913 60.3546 29.2724 60.1712L28.3588 59.901L28.2809 45.1707C28.2044 30.7586 28.19 30.4232 27.6132 29.6366C27.2889 29.1947 26.6195 28.7103 26.126 28.5605L25.2283 28.288V16.169C25.2283 4.91777 25.1906 3.97948 24.704 3.06681C23.9329 1.62164 22.9278 0.99089 21.2032 0.869866C19.8716 0.776463 19.12 1.00143 14.4638 2.88713ZM62.8128 5.64136C68.8784 6.4666 74.7498 9.92277 78.2916 14.7532L79.0344 15.7658L74.0572 23.1537C71.3199 27.217 68.5509 31.3398 67.9042 32.3154C66.8671 33.8799 66.6195 34.09 65.8076 34.0952C65.3011 34.0986 64.887 34.047 64.887 33.981C64.887 33.9149 65.2694 32.7306 65.7368 31.3492C66.2042 29.9678 66.5867 28.6058 66.5867 28.3227C66.5867 27.4568 65.8195 26.2571 65.0366 25.8986C62.9276 24.9324 61.629 26.007 60.4982 29.6546C60.0716 31.0305 59.6254 32.0492 59.5064 31.9184C59.3872 31.7877 59.13 31.1681 58.9345 30.5416C57.9405 27.3568 57.4623 26.3963 56.6641 25.9814C55.0361 25.1351 53.5415 25.6964 52.8231 27.4243C52.4636 28.2891 52.5073 28.5859 53.3851 31.2467L54.3367 34.1313L53.3446 34.045C52.2625 33.9508 52.8732 34.7766 43.0889 20.1836C39.7595 15.2179 39.8244 15.7487 42.2249 13.1192C47.5624 7.27276 54.9851 4.57691 62.8128 5.64136ZM19.8461 17.5849V28.4059H15.4553H11.0645V19.6326C11.0645 13.0611 11.1534 10.7383 11.4186 10.3773C11.6993 9.99453 18.773 6.90798 19.6336 6.79237C19.7503 6.77671 19.8461 11.6333 19.8461 17.5849ZM22.6788 46.9155V59.7298H15.4553H8.23173V46.9155V34.1011H15.4553H22.6788V46.9155ZM65.4535 62.7198V85.6433H59.6464H53.8392V62.7198V39.7964H59.6464H65.4535V62.7198ZM25.5116 75.5342V85.6433H15.4553H5.39896V75.5342V65.4251H15.4553H25.5116V75.5342Z" fill="#FBFBFB"></path> </svg> 